PathFileType	4	(X/Y/Z)	8_2_105_p1_0-373_filt_butterworth.trc
DataRate	CameraRate	NumFrames	NumMarkers	Units	OrigDataRate	OrigDataStartFrame	OrigNumFrames
58.0	58.0	4	27	m	58.0	0	373
Frame#	Time	RHip			RKnee			RAnkle			RBigToe			RSmallToe			RHeel			LHip			LKnee			LAnkle			LBigToe			LSmallToe			LHeel			Neck			Head			Nose			RShoulder			RElbow			RWrist			RThumb			RIndex			RPinky			LShoulder			LElbow			LWrist			LThumb			LIndex			LPinky			
		X1	Y1	Z1	X2	Y2	Z2	X3	Y3	Z3	X4	Y4	Z4	X5	Y5	Z5	X6	Y6	Z6	X7	Y7	Z7	X8	Y8	Z8	X9	Y9	Z9	X10	Y10	Z10	X11	Y11	Z11	X12	Y12	Z12	X13	Y13	Z13	X14	Y14	Z14	X15	Y15	Z15	X16	Y16	Z16	X17	Y17	Z17	X18	Y18	Z18	X19	Y19	Z19	X20	Y20	Z20	X21	Y21	Z21	X22	Y22	Z22	X23	Y23	Z23	X24	Y24	Z24	X25	Y25	Z25	X26	Y26	Z26	X27	Y27	Z27	
0	0.0	0.2673088399726014	0.8942875833967183	0.684229639534689	0.269550469703563	0.3638796718795646	0.7852237564014847	0.23208683158640367	-0.08174902513891016	0.9292877552201683	0.2127537348635407	-0.095527747824092	0.6683395861872659	0.2662755318831039	-0.1060544921174434	0.7209877115112185	0.21382259303813678	-0.129965506274771	0.9644738784214814	0.043874553191300555	0.8841291604102347	0.7024892078358743	0.038767609085668515	0.384772041474456	0.7895845958850535	0.04822646671534634	-0.046555461846573803	0.8608403810660754	0.05402276374260796	-0.10856641747768668	0.7104237686569372	-0.00903365071523593	-0.08053461854079504	0.7303259142923718	0.06861340616823788	-0.11612934866743466	0.9528690337801916	0.19460719294810855	1.4656171126984368	0.6603450085921423	0.15655130490345762	1.7068428606560575	0.5895030083655559	0.15387850114778154	1.5702383750526387	0.5244049142917759	0.36846224460526034	1.3266090575427059	0.6854227961164865	0.377785426989257	1.027355009782481	0.7158677913916438	0.3641292848487244	0.7651349166359255	0.6005834460773339	0.28866327218346627	0.6540469863832911	0.5402822591158176	0.3051920961150197	0.6444356550388569	0.5344068675641864	0.36143975369353726	0.6245336774925866	0.6083549959097645	0.02993403757245536	1.3663990307960014	0.7012960512540765	-0.04094805607595597	1.084450523294182	0.713251623174333	-0.0188296058185975	0.8670694692056216	0.5824061843025915	0.041518176975255304	0.7383231407717465	0.5289193951282433	0.00594974547466366	0.7219808734756639	0.5172756709216758	-0.03758749791390251	0.7285875127296143	0.55124282447595	
1	0.0172413793103448	0.26812253725360563	0.891746662610179	0.6855083142979383	0.2705760897722283	0.3635430682022215	0.7853490553987889	0.2315209307022453	-0.08071560870667813	0.9258558404279209	0.2105916923122042	-0.10187129678207786	0.6797545614730738	0.26857866905550093	-0.11421198525156136	0.7308913800038348	0.21377894530158945	-0.12959959523237502	0.9641777068273001	0.044526918685232744	0.8850770035140559	0.6984665162612889	0.03876209274089513	0.38573543597041493	0.7847138158567524	0.04870972243987299	-0.04602464078373171	0.8603744815278276	0.051894645064447104	-0.1112728155887565	0.7103366650488906	-0.007739219380824065	-0.07916029257700616	0.7308291378415153	0.06787376970811886	-0.11354561958556617	0.9502119818704838	0.19459814680662083	1.465432123560077	0.6602058461126261	0.15892808199720623	1.7082596708529558	0.5974794786859841	0.15451091072841477	1.5695877187567722	0.5156030764058523	0.3685050162262071	1.326858571143252	0.6854526673314704	0.37875656235403315	1.0287738959008825	0.7163626862805067	0.36823244734339705	0.7667201747836391	0.591731768839386	0.2995232022904287	0.6417340253009192	0.5770325508580484	0.3207524720070487	0.635228508189672	0.5609264315029924	0.37105147161838037	0.6234307392065035	0.6166809257494129	0.03239475247914	1.3677142062742431	0.6949261376397229	-0.037524995259196565	1.083067836900299	0.7210264724908293	-0.020968080520320995	0.8609112041176249	0.5903922261485327	0.0201399805253637	0.7302418805874134	0.5504781820855135	-0.010006175693007375	0.7233731336481359	0.5158163136503539	-0.04742910342453231	0.721628602322218	0.5711145755756586	
2	0.0344827586206896	0.26885879318003975	0.8894485437403095	0.6868202876251784	0.2714356524600983	0.36325795981562686	0.7854544661647408	0.2311184891274556	-0.07995632174915962	0.9231348274053515	0.2090878556286165	-0.10621605312928689	0.6876353251604108	0.26973148470102215	-0.11930029642658607	0.7372847848955941	0.2137272680142498	-0.12927433249531395	0.963915691217553	0.045108729833790794	0.8858780816177267	0.6953234643260932	0.03880799064106654	0.38672007329626645	0.7801819783487011	0.04909341382077474	-0.04554958003671869	0.8599695859034842	0.05124979373202168	-0.1132250402722966	0.7112502425660985	-0.006505745039896554	-0.0782605958422442	0.7311846427849942	0.06736588476436899	-0.11154269561020325	0.9483070388447261	0.19459039007061693	1.4654207108524886	0.660058205085101	0.16086369642046236	1.7094237032592958	0.6013427162095697	0.15474109829876476	1.5693880001546914	0.5091032930523152	0.3685107322856442	1.3266067913285682	0.6855108795264044	0.37930139410674923	1.0305357111054971	0.716618830264434	0.37376674686489814	0.7683890485640935	0.5901333588208657	0.30932743388113043	0.6335208967799563	0.6038808481487694	0.3333968821494882	0.6286413532478254	0.5826501377316419	0.37923198476904835	0.6203640889499096	0.6317530062198431	0.033948783815404095	1.3687454097468081	0.6909093098730228	-0.035723917531240434	1.0821611821894344	0.7262295794130713	-0.026159376306612588	0.8563823433216009	0.5995178943092367	0.0032081731544846073	0.7229354798860206	0.569868939736843	-0.023679223702935195	0.7210012882258432	0.5242578026717681	-0.05676628505240565	0.7156316488254286	0.5899978412824359	
3	0.0517241379310344	0.2695215505983511	0.8873839425984331	0.6881533350918104	0.27214187845227755	0.3630198815758503	0.7855411096685045	0.2308644851459451	-0.07944742996206183	0.9210662703235445	0.20813280165088882	-0.10890643845348089	0.692579316861996	0.2700282764523698	-0.12193404918232474	0.7408534111611061	0.2136702463482735	-0.1289888236211059	0.9636870332520223	0.045625798695178306	0.8865398883705858	0.6929871479185407	0.03890126111465433	0.38771602596549154	0.7759919426332246	0.04938695684673513	-0.045125598147095755	0.8596239491662765	0.05169699008568593	-0.1145694075192448	0.7128790101557868	-0.005413137124522138	-0.07774244425871116	0.7314090582815038	0.06707029757510952	-0.11007016906971304	0.9470890983020124	0.1945843075782897	1.465534480818021	0.6599084461639897	0.16246820134790074	1.7103624976982672	0.6019671979748756	0.15472200625485777	1.5695587810214249	0.5046594182924345	0.3684902516385618	1.3259897364685835	0.6855874652800324	0.37952136391191904	1.0324823065744213	0.7166950128340732	0.3801980127852096	0.7700172682906988	0.5943137384671733	0.31806091386470897	0.6286574894053437	0.6224782978086009	0.3435586192573161	0.6241031425716547	0.6004822630440572	0.386073607612592	0.6159512906893216	0.6513656323882965	0.03477074879945248	1.3695503565510667	0.6887903287676594	-0.03519948821851432	1.0816453317374992	0.7293199876719645	-0.033487061244476535	0.8532273433148813	0.609410954911046	-0.010019497560376504	0.7162816030974852	0.587656746278561	-0.03541669722686597	0.7158144857045666	0.5402931362352742	-0.06552005956133897	0.7106448062979098	0.6073737933260845	
